<?xml version="1.0" encoding="UTF-8"?>
<svg id="Color" xmlns="http://www.w3.org/2000/svg" version="1.1" viewBox="0 0 2532.2 2303.23">
  <!-- Generator: Adobe Illustrator 29.8.1, SVG Export Plug-In . SVG Version: 2.1.1 Build 2)  -->
  <defs>
    <style>
      .st0 {
        fill: #fff7c0;
      }

      .st1 {
        fill: #e8aa80;
      }

      .st2 {
        fill: #eade98;
      }

      .st3 {
        fill: #fff;
      }

      .st4 {
        fill: #f7c4a1;
      }
    </style>
  </defs>
  <g>
    <path d="M542.48,1032.2l-221.48-107.45,65.91-129.35,60.18,29.38-40.62,77.65,34.23,15.59,31.51-60.72,55.04,23.75-32.38,62.63,79.24,36.75-31.64,51.78Z"/>
    <path d="M530.49,582.02c19.71,10.96,41.05,25.05,61.79,40.96,69.32,53.15,130.13,127.34,86.92,183.7-39.93,52.08-126.26,24.78-204.94-35.54-17.96-13.77-39.85-33.95-53.96-48.55l48.63-50.32c10.49,14.09,30.47,32.04,45.64,43.68,46.8,35.88,84.37,51.85,98.59,33.3,16.05-20.93-8.95-50.67-51.71-83.45-21-16.1-41.43-28.75-59.37-38.35l28.41-45.43Z"/>
    <path d="M861.52,628.54l-147.21-57.36,82.73,98.85-55.13,33.5-135.75-167.87,46.83-53.66,120.26,59.17-77.55-93.59,56.93-49.36,131.28,203.87-22.39,26.44Z"/>
    <path d="M1052.17,535.23l-101.04-49.62,23.28,81.97-49.65,7.23-91.96-214.58,69.56-25.35,26.9,91.16,23.68-106.64,65.25-21.6-34.07,130.95,102.13,47.48-34.08,59Z"/>
    <path d="M1201.87,499.74c-59.69,5.33-114.31-40.37-120.32-107.69-6.18-69.22,30.78-130.45,102.42-136.84,73.13-6.52,119.07,49.87,124.82,114.32,6.57,73.67-44.84,124.66-106.92,130.2ZM1239.8,378.57c-2.21-24.77-19.78-49.76-48.44-47.21-28.95,2.58-45.74,26.8-42.8,59.83,2.38,26.67,19.92,51.35,52.76,48.42,26.56-2.37,41.48-27.38,38.48-61.04Z"/>
    <path d="M1462.23,434.62l9.73-45.52,108.9,19.92c-.51,4.79-1.52,9.14-2.54,13.48-21.07,90.01-86.46,115.63-138.11,103.55-57.19-13.38-105.01-74.67-86.49-153.82,17.94-76.67,85.23-109.05,151.17-93.62,24.22,5.67,48.22,17.51,69.39,36.21l-39.92,50.9c-13.79-12.07-31.01-22.65-48.23-26.68-27.14-6.35-54.04,3.4-64.72,49.02-9.23,39.42,12.25,73.91,35.88,79.44,15.46,3.62,31.36-2.48,41.84-23.6l-36.91-9.29Z"/>
    <path d="M1662.64,618.82l12.61-95.1c-9.4.17-19.36-1.09-26.88-2.42l-26.72,61.07-62.17-22.8,115.06-214.37c20.5,5.76,41.57,14.78,60.59,25.58,49.52,28.09,85.17,70.3,60.01,114.67-13.21,23.29-37.36,34.88-69.73,38.51l9.79,95.71-72.56-.84ZM1670.16,469.52c28.84,10.5,57.61,9.59,67.52-7.88,9.12-16.08.33-27.3-12.7-34.69-10.17-5.77-22.95-9.35-31.92-11.14l-22.89,53.72Z"/>
    <path d="M1823.16,742.56l30.71-51.56-42.92-38.83-41.86,29.96-51.75-45.23,212.17-129.18,59.97,49.25-114.16,232.12-52.16-46.52ZM1912.52,584.26l-64.8,41.86,28.07,27.44,36.73-69.3Z"/>
    <path d="M1980.73,973.14l122.2-75.64-144.27,23.2-13.8-30.35,96.75-100.74-128.19,59.13-22.43-67.9,220.84-77.34,29.6,67.78-80.35,86.81,111.95-13.29,38.17,64.87-197.22,130.65-33.26-67.17Z"/>
  </g>
  <g>
    <path class="st0" d="M1503.51,1151.3c229.25,0,319.81,71.72,319.81,71.72l1.1-49.22c0-162.23-111.37-299.86-111.37-299.86,0,0-142.65-178.21-454.35-178.21s-436.43,182.86-483.41,259.9c-46.99,77.03-56.97,221.88-56.97,221.88,0,0-.8,14.5,0,47.48,84.2-61.44,290.53-73.7,290.53-73.7h494.67Z"/>
    <g id="Skin">
      <path class="st4" d="M760.38,1583.52v-.03c68.61,249.3,282.4,232.35,282.4,232.35h437.75c219.54,0,283.21-156.61,301.83-232.46,77.64-25.32,118.34-104.9,101.51-200.25-16.85-95.51-76.5-64.46-76.5-64.46,0,0-12.71,91.44-20.15,173.98-7.53-169.18-27.08-275.09-29.89-302.63-66.08-28.34-196.91-36.78-196.91-36.78,0,0-62.22-1.95-410.62-1.95s-358.24,38.73-358.24,38.73c0,0-33.48,164.41-35.32,315.88-7.19-85.66-21.3-187.24-21.3-187.24,0,0-59.65-31.05-76.5,64.46-16.85,95.51,24.01,175.21,101.92,200.38Z"/>
    </g>
    <path class="st1" d="M1345.87,1690.68s-32.15,28.43-74.69,28.43-74.69-28.43-74.69-28.43l74.69,11.47,74.69-11.47Z"/>
    <path class="st1" d="M1470.44,1659.95s-107.09,23.77-199.27,2.81c-92.18,20.96-199.28-2.81-199.28-2.81l199.28-31.11,199.27,31.11Z"/>
    <path class="st1" d="M1780.32,1591.31c-86.81,240.26-274.46,224.53-274.46,224.53h-416.65c-186.65,0-241.99-65.15-296.02-150.26-54.04-85.13-26.26-150.41-26.26-150.41,0,0-81.54,257.04,504.24,257.04s504.24-257.04,504.24-257.04c0,0,21.37,32.55,4.91,76.14Z"/>
    <path class="st2" d="M1802.76,1211.78s-26.66-447.31-531.58-447.31-531.58,447.31-531.58,447.31c0,0-19.21,36.47-18.08-20.78,1.11-57.24,9.1-477.32,523.13-495.14,514.01-17.82,564.23,381.29,569.99,411.84,5.76,30.54,23.26,154.03-11.87,104.07Z"/>
    <g id="Outlines_x2B_Shoes">
      <path d="M1336.08,1079.55c-7.77,0-14.07,6.3-14.07,14.07s6.3,14.07,14.07,14.07,14.07-6.3,14.07-14.07-6.3-14.07-14.07-14.07Z"/>
      <path d="M1258.7,1079.55c-7.77,0-14.07,6.3-14.07,14.07s6.3,14.07,14.07,14.07,14.07-6.3,14.07-14.07-6.3-14.07-14.07-14.07Z"/>
      <path d="M1181.32,1079.55c-7.77,0-14.07,6.3-14.07,14.07s6.3,14.07,14.07,14.07,14.07-6.3,14.07-14.07-6.3-14.07-14.07-14.07Z"/>
      <path d="M1103.94,1079.55c-7.77,0-14.07,6.3-14.07,14.07s6.3,14.07,14.07,14.07,14.07-6.3,14.07-14.07-6.3-14.07-14.07-14.07Z"/>
      <path d="M1434.85,1079.55c-7.77,0-14.07,6.3-14.07,14.07s6.3,14.07,14.07,14.07,14.07-6.3,14.07-14.07-6.3-14.07-14.07-14.07Z"/>
      <path d="M981.91,1304.75c-56.56,0-102.57,46-102.57,102.57s46,102.54,102.57,102.54,102.55-46,102.55-102.54-46-102.57-102.55-102.57ZM952.37,1409.19c-11.65,0-21.1-9.45-21.1-21.1s9.45-21.12,21.1-21.12,21.12,9.45,21.12,21.12-9.45,21.1-21.12,21.1Z"/>
      <path class="st3" d="M973.49,1388.09c0,11.65-9.45,21.1-21.12,21.1s-21.1-9.45-21.1-21.1,9.45-21.12,21.1-21.12,21.12,9.45,21.12,21.12Z"/>
      <path d="M1121.73,1257.84c0-20.48-22.33-32.23-43.22-36.4-.96-.19-1.96-.29-2.96-.29h-142.89c-46.71,0-72.62,29.1-83.91,46.44-3.07,4.72-3.3,10.72-.58,15.65,2.68,4.87,7.78,7.88,13.33,7.88h.19c48.68-.59,208.53-2.51,222.28-2.51s37.76,0,37.76-30.76Z"/>
      <path d="M1560.44,1304.75c-56.54,0-102.57,46-102.57,102.57s46.03,102.54,102.57,102.54,102.54-46,102.54-102.54-46-102.57-102.54-102.57ZM1530.89,1409.19c-11.65,0-21.1-9.45-21.1-21.1s9.45-21.12,21.1-21.12,21.1,9.45,21.1,21.12-9.45,21.1-21.1,21.1Z"/>
      <path class="st3" d="M1552,1388.09c0,11.65-9.45,21.1-21.1,21.1s-21.1-9.45-21.1-21.1,9.45-21.12,21.1-21.12,21.1,9.45,21.1,21.12Z"/>
      <path d="M1458.37,1288.6c13.75,0,173.62,1.92,222.29,2.51h.19c5.56,0,10.65-3.01,13.33-7.88,2.71-4.93,2.49-10.93-.58-15.65-11.29-17.35-37.2-46.44-83.9-46.44h-142.89c-1,0-2,.1-2.95.29-20.9,4.17-43.23,15.93-43.23,36.4,0,30.76,23.63,30.76,37.76,30.76Z"/>
      <path d="M1228.64,1567.61c-94.34,8.18-144.91,42.63-167.84,64.25-4.85,4.57-6.41,11.54-3.96,17.76,2.45,6.24,8.37,10.3,15.07,10.34,40.39.24,139.08-.31,182.69-10.88,10.85-2.63,22.32-2.63,33.17,0,39.31,9.52,123.33,10.92,169.12,10.92,5.02,0,9.58-.02,13.58-.04,6.7-.04,12.61-4.1,15.07-10.34,2.44-6.21.89-13.18-3.96-17.76-22.95-21.63-73.56-56.11-168.01-64.26,12.16-11.4,19.58-27.75,19.14-44.97-9.25,16.09-19.62,28.37-34.64,36.11-19.44,8.73-44.17,7.71-61.73-4.85-10.45-7.29-19.25-18.31-26.65-31.25-.59,16.01,6.68,33.24,18.97,44.98Z"/>
      <path d="M1195.23,1683.02c-3.16-.61-9.36-2.09-12.46-2.97-4.14-1.13-8.25-2.44-12.27-4.17,3.21,3.03,6.95,5.48,10.79,7.68,47.54,27.22,147.34,27.75,190.57-7.68-43.81,17.26-130.23,16.35-176.63,7.14Z"/>
      <path d="M1518.89,1822.99c81.86-6.11,148.43-37.9,198.17-94.72,34.76-39.71,58.13-88.44,73.8-138.06,8.78-2.97,29.43-11.42,50.1-30.48,24.43-22.54,53.55-64.83,53.55-138.34,0-55.66-12.12-91.72-36.01-107.18-14.1-9.14-28.8-8.79-38.5-6.96-1.16-19.33-2.59-33.19-3.31-39.48,10.05-12.78,15.33-34.89,16.74-41.53.32-1.06.5-2.15.48-3.28-1.26-167.64-51.71-299.47-149.97-391.83-86.28-81.1-194.04-115.75-269.23-130.54-32.8-6.46-62.12-9.8-85.64-11.5-6.58-13.56-24.25-32.42-57.9-32.42s-51.32,18.86-57.9,32.42c-23.52,1.7-52.84,5.04-85.65,11.5-75.18,14.79-182.93,49.44-269.21,130.54-98.26,92.35-148.71,224.18-149.97,391.83-.02,1.13.16,2.23.48,3.28,1.41,6.64,6.68,28.75,16.74,41.53-.72,6.29-2.15,20.16-3.31,39.48-9.7-1.83-24.4-2.17-38.5,6.96-23.89,15.46-36.01,51.52-36.01,107.18,0,73.51,29.12,115.8,53.55,138.34,20.68,19.07,41.33,27.51,50.1,30.48,15.67,49.62,39.04,98.34,73.8,138.06,49.74,56.83,116.31,88.61,198.17,94.72h495.43ZM768.36,1588.74c-8.48-147.16,23.42-360.36,28.69-394.23,50.45-17.98,130.83-34.95,254.57-34.95h439.1c123.74,0,204.12,16.97,254.57,34.95,5.28,33.87,37.18,247.07,28.69,394.23-15.18,47.14-37.34,92.06-69.4,128.66-52.37,59.83-124.9,90.17-215.55,90.17h-435.73c-90.65,0-163.18-30.33-215.55-90.17-32.06-36.61-54.22-81.52-69.4-128.66ZM692.67,1328.18c10.77-7.05,22.33-5.83,28.81-4.25-.97,22.66-1.36,50.45-.12,81.14-2.52-3.02-5.08-6.01-7.68-9.06-8.02-9.23-16.33-18.35-25.91-26.7,6.04,18.46,15.06,35.04,25.75,50.98.79,1.22,1.36,2.61,1.52,4.04.44,2.92-.48,5.8-2.39,8.07-15.97,19.36-13.38,48.18-3.3,69.2,1.3-12.12,1.96-24.18,4.84-35.7,2.01-7.99,4.72-15.2,9.66-21.35,3.27,38,9.69,81.68,21.7,125.51-26.74-12.47-81.19-49.99-81.19-148.68,0-61.71,15.39-84.75,28.3-93.22ZM869.63,843.27c138.53-130.28,336.74-139.22,388.4-139.22,7.9,0,12.38.21,12.69.22l.45.03.45-.03c2.39-.13,241.4-11.18,401.09,139,82.81,77.89,130.39,185.3,141.91,319.86-29.59-23.96-103.83-66.46-261.14-70.46-9.17-.23-17-6.92-18.6-15.91-4.63-25.95-18.32-75.82-57.88-118.11-47.16-50.41-116.41-75.97-205.83-75.97s-158.68,25.56-205.83,75.97c-39.57,42.29-53.25,92.16-57.88,118.11-1.6,9-9.42,15.68-18.6,15.91-157.31,4-231.55,46.5-261.14,70.46,11.52-134.54,59.1-241.97,141.91-319.86ZM726.05,1187.26c10.01-11.24,73.64-73.26,263.23-78.06,16.98-.44,31.46-12.85,34.45-29.54,9.67-54.25,53.17-180.45,247.44-180.45s237.77,126.2,247.44,180.45c2.98,16.69,17.47,29.1,34.45,29.54,188.44,4.78,253.05,66.87,263.24,78.11.43,8.07.75,16.22.92,24.47-31.65-22.27-120.08-67.37-317.43-68.71,1.7-25.54,1.48-97.47-46.82-152.99-39.23-45.12-100.4-68-181.8-68s-142.57,22.88-181.8,68c-48.3,55.52-48.52,127.45-46.82,152.99-197.35,1.35-285.77,46.44-317.43,68.71.18-8.27.5-16.43.92-24.52ZM1849.68,1328.18c12.91,8.46,28.3,31.51,28.3,93.22,0,98.71-54.46,136.21-81.2,148.68,12.03-43.83,18.45-87.52,21.72-125.51,4.94,6.16,7.65,13.36,9.64,21.35,2.89,11.52,3.53,23.58,4.85,35.7,10.08-21.03,12.68-49.84-3.3-69.2-1.91-2.27-2.83-5.16-2.39-8.07.16-1.44.73-2.81,1.52-4.04,10.68-15.94,19.71-32.52,25.75-50.98-9.58,8.35-17.89,17.47-25.91,26.7-2.59,3.05-5.16,6.04-7.69,9.06,1.26-30.69.86-58.49-.12-81.14,6.49-1.58,18.04-2.8,28.82,4.25ZM1483.18,1143.03h-106.2c11.91-13.07,18.77-30.26,18.77-48.62s-6.96-35.55-18.83-48.62h91.02c16.78,40.65,16.28,81.24,15.24,97.25ZM1379.22,1094.41c0,20.31-10.9,38.75-28.53,48.62h-291.52c-1.06-16-1.54-56.61,15.24-97.25h276.29c17.47,9.8,28.52,28.36,28.52,48.62ZM1420.4,1852.97"/>
    </g>
  </g>
  <g>
    <path d="M540.55,2050.91c-8.33,0-15.57-1.36-21.73-4.07-6.16-2.72-10.95-6.81-14.39-12.29-3.44-5.48-5.34-12.33-5.7-20.57-.09-3.89-.14-7.78-.14-11.68s.04-7.83.14-11.81c.36-8.15,2.29-15,5.77-20.57,3.48-5.57,8.3-9.75,14.46-12.56,6.15-2.8,13.35-4.21,21.59-4.21s15.32,1.4,21.52,4.21c6.2,2.81,11.07,6.99,14.6,12.56,3.53,5.57,5.43,12.42,5.7,20.57.18,3.98.27,7.92.27,11.81s-.09,7.79-.27,11.68c-.36,8.24-2.26,15.1-5.7,20.57-3.44,5.48-8.24,9.57-14.39,12.29-6.16,2.72-13.4,4.07-21.73,4.07ZM540.55,2031.36c4.8,0,8.71-1.45,11.75-4.34,3.03-2.9,4.64-7.51,4.82-13.85.18-3.98.27-7.74.27-11.27s-.09-7.2-.27-11c-.18-4.25-.97-7.72-2.38-10.39-1.4-2.67-3.33-4.64-5.77-5.91-2.44-1.27-5.25-1.9-8.42-1.9s-5.84.63-8.28,1.9c-2.44,1.27-4.39,3.24-5.84,5.91-1.45,2.67-2.26,6.13-2.44,10.39-.09,3.8-.14,7.47-.14,11s.04,7.29.14,11.27c.27,6.34,1.9,10.95,4.89,13.85,2.99,2.9,6.88,4.34,11.68,4.34Z"/>
    <path d="M598.96,2049.55c-1,0-1.81-.32-2.44-.95-.63-.63-.95-1.45-.95-2.44v-88.26c0-1,.32-1.81.95-2.44.63-.63,1.45-.95,2.44-.95h14.39c1.54,0,2.65.34,3.33,1.02.68.68,1.11,1.2,1.29,1.56l33.13,52.28v-51.46c0-1,.32-1.81.95-2.44.63-.63,1.45-.95,2.44-.95h16.29c1,0,1.81.32,2.44.95.63.63.95,1.45.95,2.44v88.26c0,.91-.32,1.7-.95,2.38-.63.68-1.45,1.02-2.44,1.02h-14.53c-1.45,0-2.51-.36-3.19-1.09-.68-.72-1.11-1.22-1.29-1.49l-33.13-50.24v49.43c0,1-.32,1.81-.95,2.44-.63.63-1.45.95-2.44.95h-16.29Z"/>
    <path d="M693.52,2049.55c-1,0-1.81-.32-2.44-.95-.63-.63-.95-1.45-.95-2.44v-88.26c0-1,.32-1.81.95-2.44.63-.63,1.45-.95,2.44-.95h63.41c1,0,1.81.32,2.44.95.63.63.95,1.45.95,2.44v12.76c0,1-.32,1.81-.95,2.44-.63.63-1.45.95-2.44.95h-43.32v18.33h40.33c1,0,1.81.34,2.44,1.02.63.68.95,1.52.95,2.51v11.81c0,.91-.32,1.7-.95,2.38-.63.68-1.45,1.02-2.44,1.02h-40.33v18.87h44.4c1,0,1.81.32,2.44.95.63.63.95,1.45.95,2.44v12.76c0,1-.32,1.81-.95,2.44-.63.63-1.45.95-2.44.95h-64.5Z"/>
    <path d="M809.21,2049.55c-.91,0-1.7-.32-2.38-.95-.68-.63-1.02-1.45-1.02-2.44v-88.26c0-1,.34-1.81,1.02-2.44.68-.63,1.47-.95,2.38-.95h14.67c1.45,0,2.56.39,3.33,1.15.77.77,1.24,1.38,1.43,1.83l23.9,42.91,23.9-42.91c.27-.45.75-1.06,1.43-1.83.68-.77,1.79-1.15,3.33-1.15h14.53c1,0,1.83.32,2.51.95.68.63,1.02,1.45,1.02,2.44v88.26c0,1-.34,1.81-1.02,2.44-.68.63-1.52.95-2.51.95h-16.16c-1,0-1.83-.32-2.51-.95-.68-.63-1.02-1.45-1.02-2.44v-50.92l-15.34,28.38c-.36.81-.91,1.54-1.63,2.17-.73.63-1.72.95-2.99.95h-7.06c-1.27,0-2.26-.32-2.99-.95-.73-.63-1.31-1.36-1.76-2.17l-15.34-28.38v50.92c0,1-.32,1.81-.95,2.44-.63.63-1.45.95-2.44.95h-16.29Z"/>
    <path d="M954.32,2050.91c-8.33,0-15.57-1.36-21.73-4.07-6.16-2.72-10.95-6.81-14.39-12.29-3.44-5.48-5.34-12.33-5.7-20.57-.09-3.89-.14-7.78-.14-11.68s.04-7.83.14-11.81c.36-8.15,2.29-15,5.77-20.57,3.48-5.57,8.3-9.75,14.46-12.56,6.15-2.8,13.35-4.21,21.59-4.21s15.32,1.4,21.52,4.21c6.2,2.81,11.07,6.99,14.6,12.56,3.53,5.57,5.43,12.42,5.7,20.57.18,3.98.27,7.92.27,11.81s-.09,7.79-.27,11.68c-.36,8.24-2.26,15.1-5.7,20.57-3.44,5.48-8.24,9.57-14.39,12.29-6.16,2.72-13.4,4.07-21.73,4.07ZM954.32,2031.36c4.8,0,8.71-1.45,11.75-4.34,3.03-2.9,4.64-7.51,4.82-13.85.18-3.98.27-7.74.27-11.27s-.09-7.2-.27-11c-.18-4.25-.97-7.72-2.38-10.39-1.4-2.67-3.33-4.64-5.77-5.91-2.44-1.27-5.25-1.9-8.42-1.9s-5.84.63-8.28,1.9c-2.44,1.27-4.39,3.24-5.84,5.91-1.45,2.67-2.26,6.13-2.44,10.39-.09,3.8-.14,7.47-.14,11s.04,7.29.14,11.27c.27,6.34,1.9,10.95,4.89,13.85,2.99,2.9,6.88,4.34,11.68,4.34Z"/>
    <path d="M1012.74,2049.55c-1,0-1.81-.32-2.44-.95-.63-.63-.95-1.45-.95-2.44v-88.26c0-1,.32-1.81.95-2.44.63-.63,1.45-.95,2.44-.95h36.93c11.68,0,20.89,2.69,27.63,8.08,6.74,5.39,10.12,13.01,10.12,22.88,0,6.43-1.56,11.86-4.68,16.29-3.12,4.44-7.22,7.79-12.29,10.05l18.74,33.4c.27.54.41,1.04.41,1.49,0,.73-.29,1.38-.88,1.97-.59.59-1.29.88-2.11.88h-17.92c-1.72,0-2.99-.43-3.8-1.29-.81-.86-1.4-1.65-1.76-2.38l-15.48-29.87h-13.99v30.14c0,1-.32,1.81-.95,2.44-.63.63-1.45.95-2.44.95h-17.52ZM1033.65,1996.87h15.75c4.25,0,7.45-1.04,9.57-3.12,2.13-2.08,3.19-4.93,3.19-8.55s-1.02-6.38-3.05-8.55c-2.04-2.17-5.27-3.26-9.71-3.26h-15.75v23.49Z"/>
    <path d="M1103.41,2049.55c-1,0-1.81-.32-2.44-.95-.63-.63-.95-1.45-.95-2.44v-88.26c0-1,.32-1.81.95-2.44.63-.63,1.45-.95,2.44-.95h63.41c1,0,1.81.32,2.44.95.63.63.95,1.45.95,2.44v12.76c0,1-.32,1.81-.95,2.44-.63.63-1.45.95-2.44.95h-43.32v18.33h40.33c1,0,1.81.34,2.44,1.02.63.68.95,1.52.95,2.51v11.81c0,.91-.32,1.7-.95,2.38-.63.68-1.45,1.02-2.44,1.02h-40.33v18.87h44.4c1,0,1.81.32,2.44.95.63.63.95,1.45.95,2.44v12.76c0,1-.32,1.81-.95,2.44-.63.63-1.45.95-2.44.95h-64.5Z"/>
    <path d="M1230.92,2049.55c-1.54,0-2.76-.45-3.67-1.36-.91-.9-1.45-1.95-1.63-3.12l-14.8-86.77c-.09-.18-.14-.36-.14-.54v-.41c0-.72.29-1.38.88-1.97.59-.59,1.24-.88,1.97-.88h16.84c2.53,0,3.94,1,4.21,2.99l8.83,53.09,9.78-31.37c.27-.72.72-1.51,1.36-2.38.63-.86,1.67-1.29,3.12-1.29h9.78c1.54,0,2.62.43,3.26,1.29.63.86,1.04,1.65,1.22,2.38l9.78,31.23,8.83-52.96c.27-1.99,1.67-2.99,4.21-2.99h16.84c.82,0,1.49.29,2.04.88.54.59.81,1.25.81,1.97v.95l-14.8,86.77c-.18,1.18-.73,2.22-1.63,3.12-.91.91-2.13,1.36-3.67,1.36h-12.9c-1.54,0-2.72-.41-3.53-1.22-.81-.81-1.36-1.58-1.63-2.31l-13.71-38.83-13.71,38.83c-.27.73-.79,1.49-1.56,2.31-.77.81-1.92,1.22-3.46,1.22h-12.9Z"/>
    <path d="M1363.06,2050.91c-8.33,0-15.57-1.36-21.73-4.07-6.16-2.72-10.95-6.81-14.39-12.29-3.44-5.48-5.34-12.33-5.7-20.57-.09-3.89-.14-7.78-.14-11.68s.04-7.83.14-11.81c.36-8.15,2.29-15,5.77-20.57,3.48-5.57,8.3-9.75,14.46-12.56,6.15-2.8,13.35-4.21,21.59-4.21s15.32,1.4,21.52,4.21c6.2,2.81,11.07,6.99,14.6,12.56,3.53,5.57,5.43,12.42,5.7,20.57.18,3.98.27,7.92.27,11.81s-.09,7.79-.27,11.68c-.36,8.24-2.26,15.1-5.7,20.57-3.44,5.48-8.24,9.57-14.39,12.29-6.16,2.72-13.4,4.07-21.73,4.07ZM1363.06,2031.36c4.8,0,8.71-1.45,11.75-4.34,3.03-2.9,4.64-7.51,4.82-13.85.18-3.98.27-7.74.27-11.27s-.09-7.2-.27-11c-.18-4.25-.97-7.72-2.38-10.39-1.4-2.67-3.33-4.64-5.77-5.91-2.44-1.27-5.25-1.9-8.42-1.9s-5.84.63-8.28,1.9c-2.44,1.27-4.39,3.24-5.84,5.91-1.45,2.67-2.26,6.13-2.44,10.39-.09,3.8-.14,7.47-.14,11s.04,7.29.14,11.27c.27,6.34,1.9,10.95,4.89,13.85,2.99,2.9,6.88,4.34,11.68,4.34Z"/>
    <path d="M1421.47,2049.55c-1,0-1.81-.32-2.44-.95-.63-.63-.95-1.45-.95-2.44v-88.26c0-1,.32-1.81.95-2.44.63-.63,1.45-.95,2.44-.95h14.39c1.54,0,2.65.34,3.33,1.02.68.68,1.11,1.2,1.29,1.56l33.13,52.28v-51.46c0-1,.32-1.81.95-2.44.63-.63,1.45-.95,2.44-.95h16.29c1,0,1.81.32,2.44.95.63.63.95,1.45.95,2.44v88.26c0,.91-.32,1.7-.95,2.38-.63.68-1.45,1.02-2.44,1.02h-14.53c-1.45,0-2.51-.36-3.19-1.09-.68-.72-1.11-1.22-1.29-1.49l-33.13-50.24v49.43c0,1-.32,1.81-.95,2.44-.63.63-1.45.95-2.44.95h-16.29Z"/>
    <path d="M1512.67,1987.36c-.82,0-1.47-.27-1.97-.81-.5-.54-.7-1.31-.61-2.31l4.07-26.48c.18-1.18.66-2.24,1.43-3.19.77-.95,1.92-1.43,3.46-1.43h15.89c.72,0,1.33.27,1.83.81.5.54.75,1.18.75,1.9,0,.54-.09,1.04-.27,1.49l-10.18,26.21c-.36.91-.91,1.77-1.63,2.58-.73.81-1.86,1.22-3.39,1.22h-9.37Z"/>
    <path d="M1575.37,2049.55c-1,0-1.81-.32-2.44-.95-.63-.63-.95-1.45-.95-2.44v-70.34h-24.17c-1,0-1.81-.34-2.44-1.02-.63-.68-.95-1.47-.95-2.38v-14.53c0-1,.32-1.81.95-2.44.63-.63,1.45-.95,2.44-.95h73.05c1,0,1.81.32,2.44.95.63.63.95,1.45.95,2.44v14.53c0,.91-.32,1.7-.95,2.38-.63.68-1.45,1.02-2.44,1.02h-24.17v70.34c0,1-.32,1.81-.95,2.44-.63.63-1.45.95-2.44.95h-17.92Z"/>
    <path d="M1668.93,2049.55c-1,0-1.81-.32-2.44-.95-.63-.63-.95-1.45-.95-2.44v-88.26c0-1,.32-1.81.95-2.44.63-.63,1.45-.95,2.44-.95h17.52c1,0,1.81.32,2.44.95.63.63.95,1.45.95,2.44v32.72h33.54v-32.72c0-1,.32-1.81.95-2.44.63-.63,1.45-.95,2.44-.95h17.52c1,0,1.81.32,2.44.95.63.63.95,1.45.95,2.44v88.26c0,1-.32,1.81-.95,2.44-.63.63-1.45.95-2.44.95h-17.52c-1,0-1.81-.32-2.44-.95-.63-.63-.95-1.45-.95-2.44v-33.81h-33.54v33.81c0,1-.32,1.81-.95,2.44-.63.63-1.45.95-2.44.95h-17.52Z"/>
    <path d="M1803.5,2050.91c-8.15,0-15.28-1.34-21.39-4.01-6.11-2.67-10.84-6.79-14.19-12.36-3.35-5.57-5.02-12.65-5.02-21.25v-55.4c0-1,.32-1.81.95-2.44.63-.63,1.45-.95,2.44-.95h17.52c1,0,1.81.32,2.44.95.63.63.95,1.45.95,2.44v55.26c0,5.89,1.43,10.3,4.28,13.24,2.85,2.94,6.86,4.41,12.02,4.41s9.03-1.47,11.88-4.41c2.85-2.94,4.28-7.35,4.28-13.24v-55.26c0-1,.34-1.81,1.02-2.44.68-.63,1.47-.95,2.38-.95h17.65c.9,0,1.7.32,2.38.95.68.63,1.02,1.45,1.02,2.44v55.4c0,8.6-1.68,15.68-5.02,21.25-3.35,5.57-8.06,9.69-14.12,12.36-6.07,2.67-13.22,4.01-21.45,4.01Z"/>
    <path d="M1862.73,2049.55c-1,0-1.81-.32-2.44-.95-.63-.63-.95-1.45-.95-2.44v-88.26c0-1,.32-1.81.95-2.44.63-.63,1.45-.95,2.44-.95h36.93c11.68,0,20.89,2.69,27.63,8.08,6.74,5.39,10.12,13.01,10.12,22.88,0,6.43-1.56,11.86-4.68,16.29-3.12,4.44-7.22,7.79-12.29,10.05l18.74,33.4c.27.54.41,1.04.41,1.49,0,.73-.29,1.38-.88,1.97-.59.59-1.29.88-2.11.88h-17.92c-1.72,0-2.99-.43-3.8-1.29-.81-.86-1.4-1.65-1.76-2.38l-15.48-29.87h-13.99v30.14c0,1-.32,1.81-.95,2.44-.63.63-1.45.95-2.44.95h-17.52ZM1883.64,1996.87h15.75c4.25,0,7.45-1.04,9.57-3.12,2.13-2.08,3.19-4.93,3.19-8.55s-1.02-6.38-3.05-8.55c-2.04-2.17-5.27-3.26-9.71-3.26h-15.75v23.49Z"/>
    <path d="M1976.12,2049.55c-1,0-1.81-.32-2.44-.95-.63-.63-.95-1.45-.95-2.44v-70.34h-24.17c-1,0-1.81-.34-2.44-1.02-.63-.68-.95-1.47-.95-2.38v-14.53c0-1,.32-1.81.95-2.44.63-.63,1.45-.95,2.44-.95h73.05c1,0,1.81.32,2.44.95.63.63.95,1.45.95,2.44v14.53c0,.91-.32,1.7-.95,2.38-.63.68-1.45,1.02-2.44,1.02h-24.17v70.34c0,1-.32,1.81-.95,2.44-.63.63-1.45.95-2.44.95h-17.92Z"/>
    <path d="M2024.49,2049.55c-1,0-1.81-.32-2.44-.95-.63-.63-.95-1.45-.95-2.44v-17.24c0-.9.32-1.7.95-2.38.63-.68,1.45-1.02,2.44-1.02h17.11c1,0,1.83.34,2.51,1.02.68.68,1.02,1.47,1.02,2.38v17.24c0,1-.34,1.81-1.02,2.44-.68.63-1.52.95-2.51.95h-17.11Z"/>
  </g>
</svg>